<svg width="24" height="24" viewBox="0 0 24 24" fill="none" xmlns="http://www.w3.org/2000/svg">
<path d="M15.7993 18.9594H8.20006C6.45488 18.9594 5.03906 17.5449 5.03906 15.7987V8.20145C5.03906 6.45644 6.45369 5.04077 8.20006 5.04077H15.7981C17.5432 5.04077 18.9591 6.45526 18.9591 8.20145V15.7987C18.9591 17.5449 17.5444 18.9594 15.7993 18.9594Z" stroke="#EDEDEF" stroke-miterlimit="10"/>
<path d="M13.0896 13.4471H10.9097C10.713 13.4471 10.553 13.2872 10.553 13.0905V10.9108C10.553 10.7141 10.713 10.5542 10.9097 10.5542H13.0896C13.2863 10.5542 13.4463 10.7141 13.4463 10.9108V13.0905C13.4463 13.2872 13.2863 13.4471 13.0896 13.4471Z" stroke="#EDEDEF" stroke-miterlimit="10"/>
<path d="M11.9996 16.885C14.6975 16.885 16.8845 14.6982 16.8845 12.0006C16.8845 9.30308 14.6975 7.11628 11.9996 7.11628C9.3018 7.11628 7.11478 9.30308 7.11478 12.0006C7.11478 14.6982 9.3018 16.885 11.9996 16.885Z" stroke="#EDEDEF" stroke-miterlimit="10"/>
</svg>
