<svg width="24" height="24" viewBox="0 0 24 24" fill="none" xmlns="http://www.w3.org/2000/svg">
<path d="M18.8771 5.37963L14.4924 6.45081L11.582 6.63407M18.8771 5.37963L17.691 9.54849L17.3671 11.1966M18.8771 5.37963L14.8163 8.58252L17.3671 11.1966M17.3671 11.1966L17.2599 12.7762L17.6196 13.5648M17.6196 13.5648L17.2957 15.0841M17.6196 13.5648L16.6324 12.859L16.5454 13.7481M17.6196 13.5648L16.5454 13.7481M17.2957 15.0841L19.0926 16.7985L17.7982 18.7327L15.894 18.9302L11.3653 17.3707L6.90917 18.7327L5.86719 15.6162M17.2957 15.0841L16.5454 13.7481M5.86719 15.6162L7.48434 11.737M5.86719 15.6162L10.3721 15.7486L12.5954 15.0842L17.5862 16.7477M7.48434 11.737L6.94609 9.84052L10.0363 4.52954L11.582 6.63407M7.48434 11.737L9.98154 11.7299L12.8919 8.62632L11.582 6.63407M18.6734 16.3989L17.5862 16.7477M17.5862 16.7477V17.6806L18.5782 17.5671M14.0446 13.9786L13.4516 12.9737L12.2631 13.6913L14.0446 13.9786Z" stroke="#EDEDEF" stroke-miterlimit="10" stroke-linecap="round" stroke-linejoin="round"/>
</svg>
