<svg width="24" height="24" viewBox="0 0 24 24" fill="none" xmlns="http://www.w3.org/2000/svg">
<path d="M12.0753 14.0376L12.4244 13.6796L12.4234 13.6787L12.0753 14.0376ZM15.7105 17.5812L15.3615 17.9392L15.3624 17.9401L15.7105 17.5812ZM15.8585 17.5812L15.5115 17.2213L15.5105 17.2222L15.8585 17.5812ZM20.7911 12.8243L20.4446 12.4638L20.4441 12.4644L20.7911 12.8243ZM20.8012 12.4767L20.4338 12.8159L20.434 12.816L20.8012 12.4767ZM19.5941 11.1692L19.225 11.5066L19.2267 11.5084L19.5941 11.1692ZM19.2904 11.1591L18.9476 10.7952L18.9457 10.797L19.2904 11.1591ZM15.7971 14.4844L16.1394 14.8488L16.1418 14.8465L15.7971 14.4844ZM15.6503 14.4844L15.3056 14.8466L15.3079 14.8488L15.6503 14.4844ZM12.0741 11.0814L12.4188 10.7191L12.4164 10.7169L12.0741 11.0814ZM11.9273 11.0814L11.5849 10.7169L11.5826 10.7191L11.9273 11.0814ZM8.34987 14.4856L8.69221 14.85L8.69454 14.8478L8.34987 14.4856ZM8.20306 14.4856L7.85832 14.8478L7.86072 14.85L8.20306 14.4856ZM4.70971 11.1604L5.05445 10.7982L5.05256 10.7965L4.70971 11.1604ZM4.40605 11.1704L4.03965 10.8302L4.03868 10.8313L4.40605 11.1704ZM3.19894 12.4779L3.56616 12.8173L3.56631 12.8171L3.19894 12.4779ZM3.20898 12.8255L3.55597 12.4655L3.55553 12.4651L3.20898 12.8255ZM8.14283 17.5812L8.4909 17.2222L8.48982 17.2212L8.14283 17.5812ZM8.29089 17.5812L8.63896 17.9401L8.6399 17.9392L8.29089 17.5812ZM11.926 14.0376L11.5833 13.6735L11.577 13.6796L11.926 14.0376ZM7.86426 10.4678L8.24878 10.7874L8.24928 10.7868L7.86426 10.4678ZM7.55056 10.4828L7.90411 10.1293L7.90393 10.1291L7.55056 10.4828ZM6.3698 9.30331L6.01625 9.65687L6.01643 9.65705L6.3698 9.30331ZM6.33968 9.03981L5.91648 8.77354L5.91604 8.77424L6.33968 9.03981ZM17.6629 9.03981L18.0866 8.77424L18.0861 8.77354L17.6629 9.03981ZM17.6328 9.30331L17.9862 9.65705L17.9864 9.65687L17.6328 9.30331ZM16.4521 10.4828L16.0987 10.1291L16.0985 10.1293L16.4521 10.4828ZM16.1384 10.4678L16.5254 10.1511L16.5232 10.1486L16.1384 10.4678ZM11.7263 14.3957L15.3615 17.9392L16.0595 17.2231L12.4244 13.6796L11.7263 14.3957ZM15.3624 17.9401C15.5978 18.1683 15.9713 18.1683 16.2066 17.9401L15.5105 17.2222C15.663 17.0743 15.906 17.0743 16.0586 17.2222L15.3624 17.9401ZM16.2056 17.9411L21.1382 13.1842L20.4441 12.4644L15.5115 17.2213L16.2056 17.9411ZM21.1377 13.1847C21.4332 12.9005 21.4435 12.4351 21.1684 12.1373L20.434 12.816C20.3421 12.7166 20.3448 12.5598 20.4446 12.4638L21.1377 13.1847ZM21.1686 12.1375L19.9614 10.83L19.2267 11.5084L20.4338 12.8159L21.1686 12.1375ZM19.9631 10.8318C19.6907 10.5338 19.2331 10.5262 18.9476 10.7952L19.6333 11.5231C19.5208 11.629 19.3369 11.6289 19.2251 11.5066L19.9631 10.8318ZM18.9457 10.797L15.4523 14.1222L16.1418 14.8465L19.6351 11.5213L18.9457 10.797ZM15.4547 14.1199C15.6057 13.9781 15.8416 13.9781 15.9926 14.1199L15.3079 14.8488C15.5418 15.0684 15.9056 15.0684 16.1394 14.8488L15.4547 14.1199ZM15.9949 14.1221L12.4188 10.7191L11.7294 11.4436L15.3056 14.8466L15.9949 14.1221ZM12.4164 10.7169C12.1826 10.4973 11.8188 10.4973 11.5849 10.7169L12.2696 11.4458C12.1186 11.5876 11.8828 11.5876 11.7318 11.4458L12.4164 10.7169ZM11.5826 10.7191L8.00519 14.1234L8.69454 14.8478L12.272 11.4436L11.5826 10.7191ZM8.00753 14.1212C8.15855 13.9793 8.39437 13.9793 8.54539 14.1212L7.86072 14.85C8.09456 15.0697 8.45837 15.0697 8.6922 14.85L8.00753 14.1212ZM8.54779 14.1234L5.05444 10.7982L4.36498 11.5226L7.85833 14.8478L8.54779 14.1234ZM5.05256 10.7965C4.76534 10.5259 4.31137 10.5376 4.03965 10.8302L4.77245 11.5107C4.66386 11.6276 4.48092 11.6318 4.36686 11.5243L5.05256 10.7965ZM4.03868 10.8313L2.83157 12.1388L3.56631 12.8171L4.77343 11.5096L4.03868 10.8313ZM2.83172 12.1386C2.55662 12.4363 2.56692 12.9018 2.86242 13.1859L3.55553 12.4651C3.65529 12.561 3.65806 12.7178 3.56616 12.8173L2.83172 12.1386ZM2.86199 13.1855L7.79583 17.9412L8.48982 17.2212L3.55597 12.4655L2.86199 13.1855ZM7.79475 17.9401C8.0301 18.1683 8.40361 18.1683 8.63896 17.9401L7.94282 17.2222C8.09535 17.0743 8.33836 17.0743 8.4909 17.2222L7.79475 17.9401ZM8.6399 17.9392L12.275 14.3957L11.577 13.6796L7.94188 17.2231L8.6399 17.9392ZM12.2687 14.4017C12.1218 14.54 11.8827 14.5473 11.7273 14.3966L12.4234 13.6787C12.1852 13.4477 11.8156 13.4549 11.5833 13.6735L12.2687 14.4017ZM12.0013 8.10816C10.2047 8.10816 8.51316 8.90083 7.47924 10.1488L8.24928 10.7868C9.08249 9.78108 10.4852 9.10816 12.0013 9.10816V8.10816ZM7.47974 10.1482C7.58725 10.0188 7.78356 10.0087 7.90411 10.1293L7.19701 10.8364C7.49324 11.1326 7.98066 11.1099 8.24878 10.7874L7.47974 10.1482ZM7.90393 10.1291L6.72317 8.94957L6.01643 9.65705L7.1972 10.8366L7.90393 10.1291ZM6.72335 8.94976C6.81714 9.04355 6.83499 9.19106 6.76333 9.30537L5.91604 8.77424C5.73898 9.0567 5.78192 9.42254 6.01625 9.65687L6.72335 8.94976ZM6.76289 9.30607C7.64453 7.90478 9.61258 6.88843 12.0013 6.88843V5.88843C9.36585 5.88843 7.02745 7.00774 5.91648 8.77354L6.76289 9.30607ZM12.0013 6.88843C14.39 6.88843 16.3581 7.90478 17.2397 9.30607L18.0861 8.77354C16.9752 7.00774 14.6368 5.88843 12.0013 5.88843V6.88843ZM17.2393 9.30537C17.1676 9.19106 17.1855 9.04355 17.2793 8.94976L17.9864 9.65687C18.2207 9.42254 18.2636 9.0567 18.0866 8.77424L17.2393 9.30537ZM17.2795 8.94957L16.0987 10.1291L16.8054 10.8366L17.9862 9.65705L17.2795 8.94957ZM16.0985 10.1293C16.2181 10.0097 16.4166 10.0183 16.5253 10.1511L15.7514 10.7844C16.0182 11.1105 16.5078 11.1341 16.8056 10.8364L16.0985 10.1293ZM16.5232 10.1486C15.4895 8.90226 13.7982 8.10816 12.0013 8.10816V9.10816C13.5171 9.10816 14.9201 9.78217 15.7535 10.787L16.5232 10.1486Z" fill="#EDEDEF"/>
</svg>
